<svg xmlns="http://www.w3.org/2000/svg" xmlns:xlink="http://www.w3.org/1999/xlink" viewBox="0 0 64 64"><defs><style>.cls-1{fill:url(#radial-gradient);}.cls-2,.cls-6{opacity:0.1;}.cls-3,.cls-4,.cls-5,.cls-6{fill:#fff;}.cls-3{opacity:0.6;}.cls-4{opacity:0.4;}</style><radialGradient id="radial-gradient" cx="32" cy=".05" r="64" gradientUnits="userSpaceOnUse"><stop offset="0" stop-color="#fff" stop-opacity="0.15"/><stop offset=".5" stop-color="#fff" stop-opacity="0.1"/><stop offset="1" stop-color="#fff" stop-opacity="0"/></radialGradient><symbol id="ambient-lighting" viewBox="0 0 64 64"><path class="cls-1" d="M0 0h64v64h-64z"/></symbol></defs><title>analytics</title><rect width="64" height="64" fill="#6E8598"/><g id="icons"><path class="cls-2" d="M46.293 45.293l-7.867-7.867a12 12 0 1 0-2 2l7.867 7.867a1 1 0 0 0 1.414 0l.586-.586a1 1 0 0 0 0-1.414zm-27.293-15.293a10 10 0 1 1 10 10 10 10 0 0 1-10-10z"/><path class="cls-3" d="M27 23h4v17h-4z"/><path class="cls-4" d="M25 39l-4-2v-6h4v8zM37 37l-4 2v-12h4v10z"/><path class="cls-5" d="M46.293 44.293l-7.867-7.867a12 12 0 1 0-2 2l7.867 7.867a1 1 0 0 0 1.414 0l.586-.586a1 1 0 0 0 0-1.414zm-27.293-15.293a10 10 0 1 1 10 10 10 10 0 0 1-10-10z"/><path class="cls-6" d="M29 24a19.924 19.924 0 0 1 8.437 1.862 9 9 0 0 0-16.874 0 19.924 19.924 0 0 1 8.437-1.862z"/></g><use width="64" height="64" xlink:href="#ambient-lighting" id="lighting"/></svg>